Coordinates
version=1
nRows=6
nColumns=36
inDegrees=yes

Units are S.I. units (second, meters, Newtons, ...)
If the header above contains a line with 'inDegrees', this indicates whether rotational values are in degrees (yes) or radians (no).

endheader
time	pelvis_tilt	pelvis_list	pelvis_rotation	pelvis_tx	pelvis_ty	pelvis_tz	hip_flexion_r	hip_adduction_r	hip_rotation_r	knee_angle_r	knee_angle_r_beta	ankle_angle_r	subtalar_angle_r	mtp_angle_r	hip_flexion_l	hip_adduction_l	hip_rotation_l	knee_angle_l	knee_angle_l_beta	ankle_angle_l	subtalar_angle_l	mtp_angle_l	lumbar_extension	lumbar_bending	lumbar_rotation	arm_flex_r	arm_add_r	arm_rot_r	elbow_flex_r	pro_sup_r	arm_flex_l	arm_add_l	arm_rot_l	elbow_flex_l	pro_sup_l
      0.00000000	      3.45384997	      1.02552572	     -1.30688934	     -0.17785419	      0.97807620	      0.05957396	      5.30752198	     -4.48891992	      1.62001286	      7.19009909	      0.12549090	      0.86545346	     -8.15216680	     -7.45795988	     -2.62596269	     -2.15683140	     -9.39674977	      5.11924873	      0.08934775	      5.06474026	     -4.95055184	     -7.45795988	    -16.02042542	     -0.36433722	      1.18393185	     58.77436681	      3.96417027	     39.09374231	     98.23399010	     97.91700352	     52.05865852	      7.59142208	     54.01328131	    117.49025414	     98.32054449
      0.01666670	     -0.40325785	      0.08099436	     -2.20530108	     -0.17677843	      0.96785237	      0.05924267	      9.89119685	     -3.53065517	      2.48691062	      7.48682017	      0.13066966	      4.16988511	     -4.88776982	     -7.47032185	      2.04309817	     -3.46312045	    -11.32335902	      6.12707496	      0.10693763	      6.00605941	     -4.70344176	     -7.47032185	     -9.83774080	      0.65856082	      2.18564519	     61.25337093	      3.80179291	     38.00958257	     95.38035272	     93.03371024	     54.28898326	      8.57262332	     53.15331011	    116.56298876	     92.72742392
      0.03333330	     -1.41311676	     -0.22476264	     -2.71780545	     -0.17708856	      0.96771499	      0.06007852	     10.65161640	     -2.97504699	      2.47517767	      7.34140604	      0.12813171	      4.80252237	     -4.11761990	     -7.47328846	      3.82557950	     -4.13462989	    -12.25305182	      7.01901305	      0.12250489	      5.79112845	     -5.74572973	     -7.47328846	     -8.20283038	      0.84262768	      2.71805619	     62.45162363	      3.53112045	     37.73075968	     93.89610390	     91.81490995	     55.52292273	      8.51304369	     53.23284581	    117.02849868	     90.95769306
      0.05000000	     -1.60373689	     -0.19713416	     -3.14945831	     -0.18060504	      0.96561170	      0.06140527	     10.87906211	     -2.69929055	      2.46898179	      7.89987546	      0.13787884	      5.67176316	     -2.88416485	     -7.48232899	      4.31342442	     -4.36556534	    -12.61604658	      7.24511519	      0.12645111	      6.13330434	     -6.08968442	     -7.48232899	     -7.55558611	      0.64459243	      2.77185548	     63.09659142	      3.79151606	     38.50791315	     92.01655974	     95.64185718	     56.02980824	      8.35931642	     53.32295957	    116.71899361	     88.74926445
      0.06666670	     -1.97074513	     -0.06442445	     -3.25516500	     -0.18311432	      0.96293968	      0.06187885	     11.27249101	     -2.60050686	      2.51853573	      8.66502699	      0.15123325	      6.41138423	     -2.23190377	     -7.48565305	      5.09203354	     -4.44763007	    -12.54216302	      7.63776268	      0.13330411	      6.62669568	     -6.59020317	     -7.48565305	     -6.69404465	      0.58561332	      2.84277319	     62.94043843	      3.69500201	     39.43853752	     91.30022085	     92.69589608	     55.71512113	      8.44828866	     53.60055781	    116.29951619	     85.70078320
      0.08333330	     -2.17091094	      0.18457586	     -3.30665401	     -0.18392431	      0.96083822	      0.06305307	     11.45813552	     -2.68520108	      2.37620900	      9.59251253	      0.16742093	      7.31372866	     -1.37756515	     -7.48859797	      5.61266637	     -4.36329590	    -12.37898504	      8.03218054	      0.14018800	      7.11800585	     -6.81146031	     -7.48859797	     -5.82028077	      0.31663616	      2.60115775	     62.40927175	      3.81049037	     39.86967133	     90.86576270	     89.61494145	     55.02144715	      8.07865352	     53.34788747	    115.96355394	     82.63038073
